:SAMPLES-PER-SECOND 30
:FULLY-SPECIFIED
:DEGREES
291
root  -3.47817 40.9968 0.0271079 2.70325 -83.378 1.00861
RightUpLeg  1.36207 -1.3078 -0.633142
RightLeg  -6.24864 -25.77 3.8705
RightFoot  1.44477 -0.178815 1.68341
RightToes  -3.13588e-008 1.75238e-005 3.56266e-009
Spine  2.76663 0.540351 -4.08347
Spine1  -7.62067 0.00107853 5.43755
HEad  -7.43415 -13.5424 2.33956
LeftShoulder1  0.683977 1.03987 -21.3392
LeftArm  -46.6614 -15.9594 -23.203
LeftForeArm  99.5071 -80.5154 -85.7793
LeftHand  -0.885194 -5.43843 9.81063
RightShoulder  1.54264 1.94948 22.0889
RightArm  1.21381 -24.8084 35.0617
RightForeArm  19.6688 54.4801 14.1865
RightHand  -0.554593 7.53349 -5.33251
LeftUpLeg  -0.870711 1.07489 3.81023
LeftLeg  -4.1826 8.73505 -0.887276
LeftFoot  2.32277 0.470501 -4.04457
LeftToes  4.76812e-008 1.47286e-008 1.3089e-009
292
root  -3.5051 40.9899 -0.0365645 2.89819 -82.2927 0.899536
RightUpLeg  1.41548 -1.45126 -0.595228
RightLeg  -6.29796 -26.6924 4.16807
RightFoot  1.21263 -0.180755 1.71846
RightToes  -3.13588e-008 1.75238e-005 3.56266e-009
Spine  2.68998 1.38707 -2.93577
Spine1  -7.47227 1.00437 3.86172
HEad  -7.18173 -12.8101 2.33957
LeftShoulder1  0.586639 1.37017 -21.0671
LeftArm  -48.2161 -13.9408 -22.3938
LeftForeArm  100.873 -80.4613 -88.8437
LeftHand  -0.894936 -4.52146 10.7436
RightShoulder  1.55261 1.91416 22.4722
RightArm  1.25204 -25.4208 34.651
RightForeArm  19.7913 54.4556 14.1618
RightHand  -0.578205 7.64228 -5.50279
LeftUpLeg  -1.23746 1.01989 3.87554
LeftLeg  -3.92555 7.72183 -0.701798
LeftFoot  2.30813 0.481213 -4.13761
LeftToes  4.76812e-008 1.47286e-008 1.3089e-009
293
root  -3.54518 40.9804 -0.129385 2.76736 -80.7226 0.928375
RightUpLeg  1.81567 -1.48056 -0.420442
RightLeg  -6.55553 -28.1646 4.46599
RightFoot  0.958753 -0.161172 1.56787
RightToes  -3.13588e-008 1.75238e-005 3.56266e-009
Spine  2.52833 2.19571 -2.61613
Spine1  -7.04493 1.85735 3.38285
HEad  -6.92302 -11.3214 2.01121
LeftShoulder1  0.628548 1.23546 -21.296
LeftArm  -49.9045 -12.2274 -21.6165
LeftForeArm  103.679 -80.4493 -91.888
LeftHand  -0.910351 -4.52479 10.9446
RightShoulder  1.69104 2.29286 23.0263
RightArm  1.6745 -25.6804 33.8584
RightForeArm  19.7988 54.4028 14.1309
RightHand  -0.585308 7.58839 -5.58623
LeftUpLeg  -1.51345 1.00203 3.97336
LeftLeg  -3.57444 6.1698 -0.488746
LeftFoot  2.27295 0.496017 -4.27063
LeftToes  4.76812e-008 1.47286e-008 1.3089e-009
294
root  -3.58006 40.9686 -0.226024 2.63681 -78.8491 0.975128
RightUpLeg  2.20254 -1.55769 -0.260698
RightLeg  -6.85364 -29.9088 4.85123
RightFoot  0.734618 -0.148839 1.45386
RightToes  -3.13588e-008 1.75238e-005 3.56266e-009
Spine  2.62679 3.13121 -2.25749
Spine1  -6.90626 2.83317 2.98485
HEad  -7.12001 -10.2326 1.84583
LeftShoulder1  0.626953 1.25008 -21.4096
LeftArm  -50.7718 -11.6294 -21.9092
LeftForeArm  104.833 -80.4765 -92.3798
LeftHand  -0.807594 -5.3817 8.99362
RightShoulder  1.72895 2.39633 23.1584
RightArm  1.90585 -25.9737 33.8254
RightForeArm  19.4849 54.5662 14.2531
RightHand  -0.574588 7.46304 -5.53843
LeftUpLeg  -1.85675 0.965083 4.06467
LeftLeg  -3.26819 4.36247 -0.297954
LeftFoot  2.261 0.519152 -4.46746
LeftToes  4.76812e-008 1.47286e-008 1.3089e-009
295
root  -3.61204 40.9546 -0.312612 2.11404 -76.6299 1.51492
RightUpLeg  2.39093 -1.67956 -0.201863
RightLeg  -6.89549 -31.9612 5.06643
RightFoot  0.420314 -0.156371 1.59329
RightToes  -3.13588e-008 1.75238e-005 3.56266e-009
Spine  2.5041 3.90371 -1.84035
Spine1  -6.65224 3.6773 2.38144
HEad  -6.87755 -9.4044 1.81316
LeftShoulder1  0.653658 1.16858 -21.5954
LeftArm  -51.2936 -11.1518 -22.0212
LeftForeArm  105.277 -80.4974 -92.3722
LeftHand  -0.809549 -5.34569 9.05539
RightShoulder  1.77279 2.48428 23.479
RightArm  2.39513 -25.5876 34.1225
RightForeArm  19.7255 54.5811 14.2402
RightHand  -0.561957 7.56998 -5.38519
LeftUpLeg  -2.29692 0.8299 4.00868
LeftLeg  -3.10934 2.32922 -0.168798
LeftFoot  2.3557 0.535723 -4.57901
LeftToes  4.76812e-008 1.47286e-008 1.3089e-009
